<svg xmlns="http://www.w3.org/2000/svg" viewBox="0 0 452.81 133.07"><defs><style>.cls-1{fill:#2192d0;}.cls-2{fill:#323c64;}.cls-3{fill:#e7b034;}.cls-4{fill:#ca577c;}.cls-5{fill:#c6d035;}</style></defs><title>logo</title><g id="Layer_2" data-name="Layer 2"><g id="OBJECTS"><path class="cls-1" d="M193.09,90.62a.48.48,0,0,1,.47.47v14.55a.57.57,0,0,1-.16.33.42.42,0,0,1-.31.13.42.42,0,0,1-.34-.13.48.48,0,0,1-.12-.33V91.09a.43.43,0,0,1,.13-.33A.45.45,0,0,1,193.09,90.62ZM193,97.7H203.7l0,.88H192.85Zm10.68-7.08a.45.45,0,0,1,.33.14.43.43,0,0,1,.13.33v14.55a.51.51,0,0,1-.15.33.42.42,0,0,1-.31.13.42.42,0,0,1-.34-.13.48.48,0,0,1-.12-.33V91.09a.43.43,0,0,1,.13-.33A.45.45,0,0,1,203.66,90.62Z"/><path class="cls-1" d="M219.53,91.75l-5.59,14.06a.41.41,0,0,1-.15.21.46.46,0,0,1-.25.08.45.45,0,0,1-.33-.11.46.46,0,0,1-.13-.27.35.35,0,0,1,0-.22l6-14.63a.46.46,0,0,1,.16-.24.63.63,0,0,1,.26,0,.47.47,0,0,1,.28.08.37.37,0,0,1,.16.21l6,14.63a.9.9,0,0,1,0,.18.42.42,0,0,1-.13.31.53.53,0,0,1-.34.11.5.5,0,0,1-.27-.08.39.39,0,0,1-.17-.21L219.2,91.57Zm-4.09,9.55.31-.88h7.17l.22.88Z"/><path class="cls-1" d="M240.58,90.62a4.45,4.45,0,0,1,2.2.53,3.74,3.74,0,0,1,1.46,1.49,4.48,4.48,0,0,1,.52,2.21,4.7,4.7,0,0,1-.52,2.23,4,4,0,0,1-1.46,1.57,4.17,4.17,0,0,1-2.2.57h-4.91l.09-.15v6.59a.43.43,0,0,1-.14.31.45.45,0,0,1-.32.13A.46.46,0,0,1,235,106a.45.45,0,0,1-.12-.31V91.07a.48.48,0,0,1,.45-.45Zm0,7.72a3.22,3.22,0,0,0,1.74-.45,3.06,3.06,0,0,0,1.11-1.25,3.89,3.89,0,0,0,.4-1.79,3.6,3.6,0,0,0-.4-1.76,2.82,2.82,0,0,0-1.11-1.16,3.4,3.4,0,0,0-1.74-.42H235.7l.06-.11v7l-.09-.07Z"/><path class="cls-1" d="M259.68,90.62a4.42,4.42,0,0,1,2.2.53,3.67,3.67,0,0,1,1.46,1.49,4.48,4.48,0,0,1,.52,2.21,4.7,4.7,0,0,1-.52,2.23,3.88,3.88,0,0,1-1.46,1.57,4.14,4.14,0,0,1-2.2.57h-4.91l.09-.15v6.59a.39.39,0,0,1-.14.31.45.45,0,0,1-.32.13.42.42,0,0,1-.34-.13.42.42,0,0,1-.13-.31V91.07a.41.41,0,0,1,.14-.31.43.43,0,0,1,.31-.14Zm0,7.72a3.22,3.22,0,0,0,1.74-.45,3.15,3.15,0,0,0,1.12-1.25,4,4,0,0,0,.39-1.79,3.72,3.72,0,0,0-.39-1.76,2.91,2.91,0,0,0-1.12-1.16,3.4,3.4,0,0,0-1.74-.42H254.8l.06-.11v7l-.09-.07Z"/><path class="cls-1" d="M282,90.54a.41.41,0,0,1,.34.15.5.5,0,0,1,.11.27.37.37,0,0,1,0,.15.38.38,0,0,1-.06.13l-5.24,7.12.2-.64v7.94a.46.46,0,0,1-.13.31.45.45,0,0,1-.34.13.44.44,0,0,1-.34-.13.45.45,0,0,1-.12-.31V97.87l.11.47-5.17-7.1a.42.42,0,0,1-.07-.13.36.36,0,0,1,0-.15.37.37,0,0,1,.15-.3.53.53,0,0,1,.31-.12.44.44,0,0,1,.38.19l4.91,6.7-.22,0,4.86-6.66A.42.42,0,0,1,282,90.54Z"/><path class="cls-1" d="M301.11,106.32a6.74,6.74,0,0,1-3-.57,9,9,0,0,1-2.39-1.75.36.36,0,0,1-.08-.12.33.33,0,0,1-.05-.21.47.47,0,0,1,.16-.34.42.42,0,0,1,.33-.17.51.51,0,0,1,.37.2,6,6,0,0,0,4.53,2.08,5.31,5.31,0,0,0,2-.37,3.22,3.22,0,0,0,1.39-1,2.53,2.53,0,0,0,.51-1.58,2.77,2.77,0,0,0-.62-1.81,4.63,4.63,0,0,0-1.54-1.13c-.62-.29-1.28-.57-2-.82-.54-.2-1.08-.42-1.61-.64a7.13,7.13,0,0,1-1.44-.8,3.56,3.56,0,0,1-1-1.2,3.81,3.81,0,0,1-.38-1.78,3.48,3.48,0,0,1,.59-2,4.09,4.09,0,0,1,1.68-1.39,6.07,6.07,0,0,1,2.59-.52,6.75,6.75,0,0,1,2.46.46,4.17,4.17,0,0,1,1.88,1.35,1.08,1.08,0,0,1,.22.47.45.45,0,0,1-.17.31.53.53,0,0,1-.36.15A.35.35,0,0,1,305,93a4.2,4.2,0,0,0-1-.92,4.77,4.77,0,0,0-1.27-.59,5.25,5.25,0,0,0-1.51-.21,5.34,5.34,0,0,0-2,.35,3.47,3.47,0,0,0-1.42,1,2.47,2.47,0,0,0-.53,1.6,2.42,2.42,0,0,0,.59,1.67A4.69,4.69,0,0,0,299.39,97c.6.29,1.22.55,1.86.79s1.11.4,1.67.63a6.86,6.86,0,0,1,1.5.85,3.6,3.6,0,0,1,1.07,1.28,4.18,4.18,0,0,1,.4,2,3.26,3.26,0,0,1-.59,1.87,4.27,4.27,0,0,1-1.64,1.4A5.85,5.85,0,0,1,301.11,106.32Z"/><path class="cls-1" d="M315.66,90.62a.45.45,0,0,1,.33.14.44.44,0,0,1,.14.33v14.55a.57.57,0,0,1-.16.33.42.42,0,0,1-.31.13.42.42,0,0,1-.34-.13.48.48,0,0,1-.12-.33V91.09a.43.43,0,0,1,.13-.33A.45.45,0,0,1,315.66,90.62Zm-.11,7.08h10.72l0,.88H315.42Zm10.68-7.08a.45.45,0,0,1,.33.14.43.43,0,0,1,.13.33v14.55a.51.51,0,0,1-.15.33.42.42,0,0,1-.31.13.42.42,0,0,1-.34-.13.48.48,0,0,1-.12-.33V91.09a.43.43,0,0,1,.13-.33A.45.45,0,0,1,326.23,90.62Z"/><path class="cls-1" d="M350.75,98.36a9,9,0,0,1-.55,3.23,7.47,7.47,0,0,1-1.53,2.52,6.92,6.92,0,0,1-2.35,1.64,8,8,0,0,1-5.92,0,6.88,6.88,0,0,1-2.34-1.64,7.34,7.34,0,0,1-1.54-2.52,9.93,9.93,0,0,1,0-6.46,7.34,7.34,0,0,1,1.54-2.52A6.86,6.86,0,0,1,340.4,91a7.84,7.84,0,0,1,5.92,0,6.9,6.9,0,0,1,2.35,1.63,7.47,7.47,0,0,1,1.53,2.52A9.05,9.05,0,0,1,350.75,98.36Zm-.93,0a8,8,0,0,0-.83-3.71,6.15,6.15,0,0,0-2.28-2.48,6.27,6.27,0,0,0-3.35-.88,6.34,6.34,0,0,0-3.34.88,6.15,6.15,0,0,0-2.28,2.48,8.73,8.73,0,0,0,0,7.43,6.12,6.12,0,0,0,2.28,2.47,6.34,6.34,0,0,0,3.34.89,6.28,6.28,0,0,0,3.35-.89,6.12,6.12,0,0,0,2.28-2.47A8,8,0,0,0,349.82,98.36Z"/><path class="cls-1" d="M365.78,90.62a4.45,4.45,0,0,1,2.2.53,3.74,3.74,0,0,1,1.46,1.49,4.48,4.48,0,0,1,.52,2.21,4.7,4.7,0,0,1-.52,2.23A4,4,0,0,1,368,98.65a4.17,4.17,0,0,1-2.2.57h-4.91l.09-.15v6.59a.43.43,0,0,1-.14.31.47.47,0,0,1-.32.13.43.43,0,0,1-.47-.44V91.07a.41.41,0,0,1,.14-.31.41.41,0,0,1,.3-.14Zm0,7.72a3.22,3.22,0,0,0,1.74-.45,3.06,3.06,0,0,0,1.11-1.25,3.89,3.89,0,0,0,.4-1.79,3.6,3.6,0,0,0-.4-1.76,2.82,2.82,0,0,0-1.11-1.16,3.4,3.4,0,0,0-1.74-.42h-4.89l.07-.11v7l-.09-.07Z"/><path class="cls-1" d="M384.88,90.62a4.42,4.42,0,0,1,2.2.53,3.74,3.74,0,0,1,1.46,1.49,4.48,4.48,0,0,1,.52,2.21,4.7,4.7,0,0,1-.52,2.23,4,4,0,0,1-1.46,1.57,4.14,4.14,0,0,1-2.2.57H380l.09-.15v6.59a.39.39,0,0,1-.14.31.45.45,0,0,1-.32.13.42.42,0,0,1-.34-.13.42.42,0,0,1-.13-.31V91.07a.48.48,0,0,1,.45-.45Zm0,7.72a3.22,3.22,0,0,0,1.74-.45,3.06,3.06,0,0,0,1.11-1.25,3.89,3.89,0,0,0,.4-1.79,3.6,3.6,0,0,0-.4-1.76,2.82,2.82,0,0,0-1.11-1.16,3.4,3.4,0,0,0-1.74-.42H380l.06-.11v7l-.09-.07Z"/><path class="cls-1" d="M399.16,105.64a.51.51,0,0,1-.15.33.42.42,0,0,1-.31.13.42.42,0,0,1-.34-.13.48.48,0,0,1-.12-.33V91.09a.43.43,0,0,1,.13-.33.46.46,0,0,1,.66,0,.43.43,0,0,1,.13.33Z"/><path class="cls-1" d="M420.74,90.62a.37.37,0,0,1,.31.13.39.39,0,0,1,.11.29v14.57a.47.47,0,0,1-.14.37.49.49,0,0,1-.32.12.72.72,0,0,1-.19,0,.46.46,0,0,1-.17-.14l-10.25-14,.3-.16v14a.36.36,0,0,1-.12.27.44.44,0,0,1-.3.11.41.41,0,0,1-.3-.11.35.35,0,0,1-.11-.27V91.07a.41.41,0,0,1,.13-.35.47.47,0,0,1,.26-.1.39.39,0,0,1,.18,0,.29.29,0,0,1,.15.12l10.22,13.93-.18.44V91a.41.41,0,0,1,.13-.29A.41.41,0,0,1,420.74,90.62Z"/><path class="cls-1" d="M438.39,106.32a8.41,8.41,0,0,1-3.18-.59,7.65,7.65,0,0,1-2.52-1.65,7.56,7.56,0,0,1-1.66-2.54,9,9,0,0,1,0-6.36A7.46,7.46,0,0,1,435.21,91a8.41,8.41,0,0,1,3.18-.59,9.1,9.1,0,0,1,2.34.3,6.56,6.56,0,0,1,2,.9.33.33,0,0,1,.15.16.54.54,0,0,1,.05.21.36.36,0,0,1-.16.33.43.43,0,0,1-.26.11.41.41,0,0,1-.16,0l-.13,0a8.76,8.76,0,0,0-1.79-.76,7.25,7.25,0,0,0-2.05-.28,7.1,7.1,0,0,0-3.64.91,6.64,6.64,0,0,0-2.48,2.51,8,8,0,0,0,0,7.31,6.43,6.43,0,0,0,2.48,2.51,7.2,7.2,0,0,0,3.64.91,7,7,0,0,0,2.17-.35,6.88,6.88,0,0,0,1.89-.89l-.09.4V99.07l.31.29h-4.28a.48.48,0,0,1-.45-.45.42.42,0,0,1,.14-.32.43.43,0,0,1,.31-.12h4.42a.44.44,0,0,1,.32.13.47.47,0,0,1,.12.31v5.55a.53.53,0,0,1-.05.2.41.41,0,0,1-.15.2,8.49,8.49,0,0,1-2.18,1.06A7.71,7.71,0,0,1,438.39,106.32Z"/><path class="cls-2" d="M184.94,34.53a1.94,1.94,0,0,1,.7.14,1.51,1.51,0,0,1,.63.49L206.33,65h-1.4L225,35.16a1.28,1.28,0,0,1,1.32-.63,1.44,1.44,0,0,1,.91.45,1.33,1.33,0,0,1,.35,1V82.05a1.31,1.31,0,0,1-.45,1,1.47,1.47,0,0,1-1,.42,1.42,1.42,0,0,1-1-.42,1.35,1.35,0,0,1-.42-1v-43h.77l-18.8,28.44a.94.94,0,0,1-.39.42,1.1,1.1,0,0,1-.59.14,1.52,1.52,0,0,1-.67-.14.84.84,0,0,1-.45-.42l-19.22-29h1.12V82.05a1.44,1.44,0,0,1-1.4,1.4,1.29,1.29,0,0,1-1-.42,1.4,1.4,0,0,1-.39-1V35.93a1.57,1.57,0,0,1,.35-1A1.18,1.18,0,0,1,184.94,34.53Z"/><path class="cls-2" d="M257.41,38.09,239.73,82.54a1.21,1.21,0,0,1-.49.66,1.27,1.27,0,0,1-.77.25,1.42,1.42,0,0,1-1-.35,1.36,1.36,0,0,1-.42-.84,1.19,1.19,0,0,1,.07-.7l18.8-46.26a1.33,1.33,0,0,1,.52-.74,1.72,1.72,0,0,1,.8-.17,1.56,1.56,0,0,1,.91.24,1.27,1.27,0,0,1,.49.67l18.8,46.26a1.74,1.74,0,0,1,.07.56,1.2,1.2,0,0,1-.42,1,1.6,1.6,0,0,1-1.05.35,1.55,1.55,0,0,1-.87-.25,1.17,1.17,0,0,1-.52-.66l-18.24-45ZM244.48,68.28l1-2.79h22.65l.7,2.79Z"/><path class="cls-2" d="M288.37,83.45a1.39,1.39,0,0,1-1.08-.42,1.4,1.4,0,0,1-.39-1V35.93a1.33,1.33,0,0,1,.42-1,1.35,1.35,0,0,1,1-.42h18.45A15.3,15.3,0,0,1,314,36.17a12.09,12.09,0,0,1,6.61,11,14.26,14.26,0,0,1-1.15,5.8,11.74,11.74,0,0,1-3.22,4.3,12.88,12.88,0,0,1-4.72,2.48l-3.21-.56a10.64,10.64,0,0,1,5.31,1.43,11.13,11.13,0,0,1,4.12,4.19,13.13,13.13,0,0,1,1.61,6.75,31.9,31.9,0,0,0,.32,5.2,7.81,7.81,0,0,0,.83,2.62,4.4,4.4,0,0,0,1.23,1.33,1.83,1.83,0,0,1,.63.7,1.4,1.4,0,0,1,.07,1,1.39,1.39,0,0,1-.46.66,1.56,1.56,0,0,1-.66.32,1.16,1.16,0,0,1-.77-.14,7.27,7.27,0,0,1-1.92-1.68A9,9,0,0,1,317,78.14a26.92,26.92,0,0,1-.62-6.57,11.38,11.38,0,0,0-1-5.24,7.76,7.76,0,0,0-2.58-3,9.32,9.32,0,0,0-3.36-1.4,17.26,17.26,0,0,0-3.25-.35h-17l.63-.83V82.05a1.35,1.35,0,0,1-.42,1A1.42,1.42,0,0,1,288.37,83.45Zm.77-24.67h18a12.61,12.61,0,0,0,5.17-1.68,10.85,10.85,0,0,0,3.88-3.91,11.4,11.4,0,0,0,1.5-5.94,9.3,9.3,0,0,0-3-7.1,11.58,11.58,0,0,0-8.21-2.83H289.49l.35-.49V59.55Z"/><path class="cls-2" d="M334.78,83.45a1.41,1.41,0,0,1-1.09-.42,1.52,1.52,0,0,1-.38-1V36a1.44,1.44,0,0,1,1.47-1.47,1.4,1.4,0,0,1,1,.42,1.42,1.42,0,0,1,.42,1V82a1.67,1.67,0,0,1-.49,1A1.33,1.33,0,0,1,334.78,83.45Zm32.63-48.64a1.38,1.38,0,0,1,1,2.37L335.82,67.51l-.62-3,31.23-29.28A1.35,1.35,0,0,1,367.41,34.81Zm1.26,49a1.28,1.28,0,0,1-1-.49l-21.1-26.14,2.23-2.24,21.11,26.42a1.7,1.7,0,0,1,.35,1,1.18,1.18,0,0,1-.6,1.15A2.24,2.24,0,0,1,368.67,83.8Z"/><path class="cls-2" d="M382.37,34.53h26.34a1.41,1.41,0,0,1,1,2.41,1.37,1.37,0,0,1-1,.38h-25.5l.69-1.18V57.8l-.83-1h22.5a1.44,1.44,0,0,1,1.4,1.4,1.29,1.29,0,0,1-.42,1,1.4,1.4,0,0,1-1,.39H383.21l.69-.77V81l-.27-.35h25.08a1.33,1.33,0,0,1,1,.42,1.35,1.35,0,0,1,.42,1,1.29,1.29,0,0,1-.42,1,1.38,1.38,0,0,1-1,.39H382.37a1.33,1.33,0,0,1-1-.42,1.35,1.35,0,0,1-.42-1V35.93a1.44,1.44,0,0,1,1.4-1.4Z"/><path class="cls-2" d="M417.45,37.18a1.39,1.39,0,0,1-1-.38,1.27,1.27,0,0,1,0-1.89,1.44,1.44,0,0,1,1-.38h34a1.42,1.42,0,0,1,1,.38,1.24,1.24,0,0,1,.42,1,1.18,1.18,0,0,1-.42,1,1.44,1.44,0,0,1-1,.35Zm17,46.27a1.29,1.29,0,0,1-1-.42,1.4,1.4,0,0,1-.39-1V36.21h2.8V82.05a1.44,1.44,0,0,1-1.4,1.4Z"/><polygon class="cls-2" points="162.61 18.98 160.62 7.03 124.87 11.96 109.32 80.24 24.02 90.91 7.4 29.63 0 29.63 15.24 100.35 120.32 93.14 135.84 22.44 162.61 18.98"/><path class="cls-1" d="M101.61,98.5a17,17,0,1,0,17,17A17,17,0,0,0,101.61,98.5Zm0,26.28a9.28,9.28,0,1,1,9.28-9.28A9.28,9.28,0,0,1,101.61,124.78Z"/><path class="cls-1" d="M32.28,103.12A14.69,14.69,0,1,0,47,117.81,14.69,14.69,0,0,0,32.28,103.12Zm0,23.52a8.84,8.84,0,1,1,8.83-8.83A8.83,8.83,0,0,1,32.28,126.64Z"/><path class="cls-3" d="M54.6,27.79a9.16,9.16,0,0,0-1.83.19l-.09-.28c-.1-.32-.19-.64-.32-1a2.35,2.35,0,0,0-.56-.95.39.39,0,0,0-.64.17,1.37,1.37,0,0,0,0,.57c-.29-.07-.6-.1-.87-.14a9.46,9.46,0,0,0-1.68-.08A3.46,3.46,0,0,0,46,27.39a5.79,5.79,0,0,0-.44.57c-.1.15-.17.29-.07.46.19.34.81.46,1.16.51a5.68,5.68,0,0,0,2.73-.44,5.07,5.07,0,0,0,1.31-.72,4.36,4.36,0,0,0,.51-.47c.06.25.12.5.19.75,0,.1,0,.21.08.32a8.71,8.71,0,1,0,3.1-.58Z"/><path class="cls-1" d="M31.73,44.92s.2-2.51,1.09-2.82c0,0,4.93.34,6.73,1.59a17.2,17.2,0,0,0,7.33,2.59c3.27.53,4.28.61,6.48,1.63a28.36,28.36,0,0,0,6.27,1.57,11.6,11.6,0,0,1-1,3.31s.14,16.76-6.89,28.52l-1.11,3.28s-4.19-1.28-7.32-1.89-6-.44-8.68-2-4.22-1.52-6.69-2a10.74,10.74,0,0,1-4.13-1.84l.78-2.57S25.15,54.48,31.73,44.92Z"/><polygon class="cls-4" points="88.19 39.38 88.97 75.85 106.74 76.94 114.22 40.78 112.35 32.2 113.13 28.46 94.74 26.59 94.27 30.65 88.19 39.38"/><path class="cls-1" d="M65,24.41c-1.38,4.15,4.91,24.86,5.92,27s11.15,2.41,12,.86S81.65,25,81.57,23.55,77.13,21.37,76.19,21s-1.4-3.19-1.25-3.89,1.17-.71.94-1.95-2.11-1.48-4.52-.94-3,1.33-3,2.18,1,.47,1.24,1.1A12.27,12.27,0,0,1,70,21.61C69.72,22.23,65.51,22.77,65,24.41Z"/><path class="cls-5" d="M97.51,22.17c-3.88-1.91-7.86-11.35-6.26-12.71s3.86-.05,3.86-.05.64-4.9,3.27-5.12S102.5,6.68,102.55,7s2.2-4.28,5.13-3.6,3.4,3.87,3.4,3.87S114.49,3.1,116.15,5s-.3,5.53-.3,5.53,3,.41,3.67,2.2-3,3.7-3,3.7,2.79-.25,2.92,1.79S107.78,27.22,97.51,22.17Z"/><path class="cls-3" d="M91.72,28.62c-.28-.69-.58-1.37-.89-2.05l-.06-.14a1.53,1.53,0,0,0,.08-.62,31.3,31.3,0,0,0-.56-3.19c-.21-1.09-.45-2.17-.7-3.24q-.77-3.19-1.76-6.31c-.51-1.59-1-3.6-2.36-4.69A12.77,12.77,0,0,1,85.39,7c0-.5.1-1.16-.23-1.58s-.93,0-1.43,0-1.16-.1-1.69.33a2.17,2.17,0,0,1-.73.55c-.39.11-.78-.16-1.12-.31-.5-.22-1.19-.35-1.57.15s.12,1,.47,1.41a7.54,7.54,0,0,1,1.47,1.86,4.5,4.5,0,0,1,.27.78,6,6,0,0,0-.15,2.88c.19,1.23.54,2.45.82,3.67.77,3.24,1.89,6.38,2.82,9.57a4.28,4.28,0,0,0,.49,1.24,1.74,1.74,0,0,0,1.12.64c0,.17,0,.35.08.52l.36,2c.08.39.11,1,.63,1a.91.91,0,0,0,.55-.18c.22-.17.4-.51.71-.51s.76.38,1.2.26a1,1,0,0,0,.48-.36,1.44,1.44,0,0,1,.57-.37,3.35,3.35,0,0,0,1-.53A1.22,1.22,0,0,0,91.72,28.62Z"/><path class="cls-4" d="M61.16,12.34c-3.86-1.8-8.23-1.75-12.34-1.07A24.44,24.44,0,0,0,42.73,13a15.38,15.38,0,0,0-1.86,1c-.19.1-.38.19-.56.3a17.52,17.52,0,0,0-6.78,7.8,21.75,21.75,0,0,0-1.9,10.62,10.65,10.65,0,0,0,1.88,5.59,8.49,8.49,0,0,0,4.55,3.09,13,13,0,0,0,6.49,0A12.34,12.34,0,0,0,50,38.72a31.73,31.73,0,0,0,4-4.89c1.37-1.83,2.71-3.69,4.12-5.49a11.51,11.51,0,0,1,2.08-2.16,14.59,14.59,0,0,1,2.53-1.34A5.73,5.73,0,0,0,66.22,21C67.13,17.12,64.38,13.84,61.16,12.34Z"/><path class="cls-5" d="M73.65,5.58a6.46,6.46,0,0,0-4.57-5,9.08,9.08,0,0,0-7.68.69,8.44,8.44,0,0,0-3.94,6c-.21,1.37-.23,2.77-.36,4.16A8.66,8.66,0,0,1,56.31,15a5.16,5.16,0,0,1-.43.61.1.1,0,0,1,0,0l-.07.08a9,9,0,0,1-1.41,1.21c-1,.64-2.17.85-3.08,1.57a2.13,2.13,0,0,0-.55,2.69,2.07,2.07,0,0,0,2.59.85c.52-.21.9-.92,1.46-1s1.09.38,1.64.47c1.24.19,1.81-1,2-2a5.56,5.56,0,0,1,1.65-3.28,7.61,7.61,0,0,1,3.76-1.55c2.54-.55,5-1.12,7.07-2.82A7.26,7.26,0,0,0,73.65,5.58Z"/><path class="cls-5" d="M84.18,69.84c.64-9.8-9.68-17.54-18.1-11.3-3.94,2.91-5.59,9.08-5,13.75.38,3.07,2.14,6.73,5.55,7.21a2.68,2.68,0,0,0,2.43-.72,5.48,5.48,0,0,0,1.08-2.52A27.7,27.7,0,0,1,71.47,71a5.59,5.59,0,0,1,.64-1.08c.15-.19.49-.68.79-.58s.34.58.39.79a3,3,0,0,1,0,1c-.22,1.48-.92,2.87-1.11,4.36a3.77,3.77,0,0,0,1.9,4A5.06,5.06,0,0,0,79.17,79,12,12,0,0,0,84.18,69.84Z"/><path class="cls-1" d="M70.66,127.28c-.6.54-1.17,1.28-1.59,1.56-1.5,1-3.6,1.28-5,0-.66-.59-1.26-1.59-2.18-1.77-2-.4-1.64,2.09-.9,3.11a6.56,6.56,0,0,0,5.61,2.89,6.83,6.83,0,0,0,5.5-3.22c.41-.69,1.11-1.77.63-2.57C72.12,126.29,71.37,126.65,70.66,127.28Z"/><path class="cls-2" d="M98,118.32c.61-.55,1.18-1.29,1.6-1.56,1.49-1,3.6-1.28,5,0,.65.59,1.25,1.59,2.18,1.77,2,.4,1.64-2.09.89-3.11a6.56,6.56,0,0,0-5.61-2.89,6.8,6.8,0,0,0-5.49,3.22c-.41.69-1.11,1.77-.63,2.57C96.57,119.3,97.32,119,98,118.32Z"/><path class="cls-2" d="M28.63,119.43a17.57,17.57,0,0,1,1.29-1.25,3.33,3.33,0,0,1,4,0c.52.48,1,1.28,1.75,1.43,1.63.32,1.33-1.69.73-2.51a5.3,5.3,0,0,0-4.53-2.33,5.52,5.52,0,0,0-4.43,2.59c-.33.56-.9,1.44-.51,2.08C27.46,120.23,28.06,119.94,28.63,119.43Z"/></g></g></svg>